PathFileType	4	(X/Y/Z)	C:/Users/opensim2020/Desktop/walking_exp_matlab/subject01_walking10_straight_01.trc																																																																																																																															
DataRate	CameraRate	NumFrames	NumMarkers	Units	OrigDataRate	OrigDataStartFrame	OrigNumFrames																																																																																																																											
100	100	4	43	mm	100	1227	349																																																																																																																											
Frame#	Time	LFHD			RFHD			LBHD			RBHD			C7			T10			CLAV			STRN			RBAK			LSHO			LUPA			LELB			LFRM			LWRA			LWRB			LFIN			RSHO			RUPA			RELB			RFRM			RWRA			RWRB			RFIN			LASI			RASI			LPSI			RPSI			LTHI			LKNE			LTIB			LANK			LHEE			LTOE			RTHI			RKNE			RTIB			RANK			RHEE			RTOE			*39			*40			*41			*42		
		X1	Y1	Z1	X2	Y2	Z2	X3	Y3	Z3	X4	Y4	Z4	X5	Y5	Z5	X6	Y6	Z6	X7	Y7	Z7	X8	Y8	Z8	X9	Y9	Z9	X10	Y10	Z10	X11	Y11	Z11	X12	Y12	Z12	X13	Y13	Z13	X14	Y14	Z14	X15	Y15	Z15	X16	Y16	Z16	X17	Y17	Z17	X18	Y18	Z18	X19	Y19	Z19	X20	Y20	Z20	X21	Y21	Z21	X22	Y22	Z22	X23	Y23	Z23	X24	Y24	Z24	X25	Y25	Z25	X26	Y26	Z26	X27	Y27	Z27	X28	Y28	Z28	X29	Y29	Z29	X30	Y30	Z30	X31	Y31	Z31	X32	Y32	Z32	X33	Y33	Z33	X34	Y34	Z34	X35	Y35	Z35	X36	Y36	Z36	X37	Y37	Z37	X38	Y38	Z38	X39	Y39	Z39	X40	Y40	Z40	X41	Y41	Z41	X42	Y42	Z42	X43	Y43	Z43
																																																																																																																																		
306	3.05	755.16974	1669.60803	1380.49341	794.86078	1681.11609	1486.52466	653.44312	1606.26855	1417.92236	693.14923	1617.00134	1530.36365	645.59052	1425.98315	1447.43738	612.81885	1133.25171	1455.12561	789.17261	1358.0946	1441.60535	832.7373	1202.21814	1438.58618	593.38782	1232.94824	1526.87891	723.17932	1387.01025	1283.22168	680.89838	1201.41614	1206.29126	661.31445	1051.0448	1212.56567	696.21222	942.1347	1189.37561	775.60602	826.9931	1203.53186	717.95148	821.55957	1186.61963	764.21021	749.98108	1176.23608	732.88983	1386.5929	1595.83899	689.68756	1184.3186	1700.62048	703.33691	1059.03259	1706.27112	757.55853	948.73572	1731.6449	858.36182	852.82397	1700.76892	821.21259	843.92194	1745.33044	871.01978	772.1095	1729.58069	784.64764	924.57831	1352.61475	777.30438	923.16565	1570.77087	596.21655	940.03571	1393.97571	591.9364	947.51465	1538.47839	818.95337	606.00092	1289.54419	843.18719	476.90149	1308.97266	840.29071	289.34714	1300.58521	885.86932	75.67661	1349.3291	852.9162	39.48126	1405.75427	1032.8667	64.09598	1330.3147	671.48022	596.66986	1615.37793	651.34119	437.09262	1590.02063	548.60046	291.8306	1588.14404	463.91385	104.39084	1532.56445	407.79639	81.71555	1480.13403	589.6908	36.37263	1533.22278	771.85944	1711.35974	1468.02222	1973.44629	1022.98724	-3102.05762	2012.49438	1022.01544	-3140.72559	NaN	NaN	NaN
307	3.06	760.97278	1669.85535	1378.21655	800.75952	1681.44434	1484.19885	659.07385	1606.66858	1415.44678	699.08887	1617.35181	1528.03271	651.88177	1425.96533	1445.07617	619.96356	1133.06189	1453.6908	795.53656	1358.38293	1439.48938	839.62842	1202.73315	1436.57751	600.01733	1232.66064	1524.72449	729.36859	1386.63733	1280.94043	687.97272	1200.74365	1204.30042	669.32855	1050.46936	1210.7478	703.87201	941.47192	1187.67834	783.20117	826.15271	1201.91272	725.7569	820.85071	1184.85632	772.10175	749.41736	1174.69885	739.10315	1386.62695	1593.63599	695.98352	1184.44531	1698.4491	709.34906	1059.03015	1703.86792	762.87018	948.37946	1729.42773	863.10895	851.85254	1698.87964	825.6781	843.07166	1743.11597	875.43475	771.54773	1728.39844	792.37054	924.66742	1350.91614	785.15594	922.92377	1569.01343	603.97717	940.07294	1392.22522	599.82172	947.19769	1536.9574	826.21411	606.48773	1288.98059	849.93713	477.58197	1308.11768	846.14386	289.68256	1300.25854	888.40973	75.07657	1348.66077	854.56104	40.50361	1405.15869	1035.2478	60.63921	1330.36865	679.16199	596.53552	1614.27832	658.34857	436.88309	1589.20837	553.20923	293.27771	1587.72571	465.77133	106.9426	1533.05615	409.09067	85.33954	1480.62402	589.92218	36.38285	1533.29785	777.77332	1711.80225	1465.80542	1973.0863	1023.46368	-3101.9707	2012.53003	1022.08081	-3140.65234	NaN	NaN	NaN
308	3.07	767.16895	1670.22046	1375.67078	806.75427	1681.79504	1481.69128	665.5152	1606.93359	1413.09473	705.06976	1617.79724	1525.58057	658.40979	1426.18152	1443.0769	627.0777	1133.08252	1452.28149	801.96527	1358.8728	1437.30396	846.64923	1203.41284	1434.48389	606.78815	1232.53906	1522.60498	735.62811	1386.48938	1278.75769	695.00946	1200.29712	1202.40515	676.95135	1049.87537	1209.05957	711.7229	940.9693	1185.94592	791.22986	825.89459	1200.27051	733.60681	820.42902	1183.11218	779.862	748.98444	1172.91125	745.49756	1387.14734	1591.73328	702.33118	1184.73096	1696.14539	715.33319	1059.26038	1701.46216	768.06635	948.33801	1727.20129	867.68164	851.02502	1696.97632	830.02899	842.54535	1741.00427	879.59088	771.11499	1727.18042	800.18542	925.04205	1349.0946	793.21112	922.84698	1567.08655	611.71423	940.41223	1390.59436	607.78387	947.12427	1535.64185	833.06262	607.14667	1288.09448	856.81189	478.48776	1307.05103	852.32068	290.19843	1299.07092	890.84869	75.10985	1347.90479	855.88916	41.22897	1404.67603	1037.19897	57.08626	1330.57483	687.01532	596.57471	1612.88318	665.20679	436.94421	1588.36072	558.38818	295.2774	1587.49365	467.79745	109.95085	1533.49707	410.87112	89.43395	1481.18384	590.31525	36.37454	1533.44189	783.84137	1712.26501	1463.30884	1973.14087	1023.5202	-3101.9917	2012.55603	1022.02148	-3140.71753	NaN	NaN	NaN
309	3.08	773.32147	1670.62061	1373.06018	812.81097	1682.36462	1479.28516	671.52545	1607.40051	1410.62524	711.0744	1618.34924	1523.12537	664.79327	1426.3689	1440.87988	634.4234	1133.09448	1450.80017	808.39478	1359.46143	1435.15332	853.70618	1204.20667	1432.3158	613.73895	1232.52161	1520.59058	741.78662	1386.51855	1276.65381	702.16974	1200.10242	1200.52905	684.58795	1049.49573	1207.30835	719.62823	940.7627	1184.18774	798.91168	825.45532	1198.80493	741.50879	820.17706	1181.26416	787.74042	748.74023	1171.12207	751.9516	1387.67249	1589.57153	708.74695	1185.17371	1693.85291	721.34332	1059.7605	1699.01843	773.1731	948.40771	1724.78345	872.09247	850.42426	1695.05981	834.21283	842.2572	1738.94849	883.58191	770.83368	1725.95862	808.03571	925.70435	1347.16614	801.35284	923.034	1565.1322	619.39948	940.93158	1389.11548	615.92084	947.04529	1534.10706	840.2345	607.99866	1286.87622	863.63757	479.14319	1305.89697	858.33875	290.51855	1297.27637	892.23846	74.49008	1347.36682	856.6546	41.69528	1403.92639	1038.70581	53.84768	1330.89429	695.28204	596.8808	1611.74976	673.06561	437.34549	1587.94678	563.35895	297.24515	1586.9198	469.9812	113.37081	1533.97705	412.85129	93.87011	1481.38	590.75543	36.56316	1533.74805	789.89166	1712.66467	1460.62073	1973.10376	1023.35254	-3102.02661	2012.43481	1021.93445	-3140.67944	NaN	NaN	NaN
